<mxfile host="Electron" agent="Mozilla/5.0 (Windows NT 10.0; Win64; x64) AppleWebKit/537.36 (KHTML, like Gecko) draw.io/26.0.4 Chrome/128.0.6613.186 Electron/32.2.5 Safari/537.36" version="26.0.4">
  <diagram name="Seite-1" id="255010JVBDJsnLo7kp2y">
    <mxGraphModel dx="1687" dy="984" grid="1" gridSize="10" guides="1" tooltips="1" connect="1" arrows="0" fold="1" page="1" pageScale="1" pageWidth="827" pageHeight="1169" math="0" shadow="0">
      <root>
        <mxCell id="0" />
        <mxCell id="1" parent="0" />
        <mxCell id="2OuwanNECZ1vhIvvn0kM-24" value="Leaf 1&lt;br&gt;Subnetz 10.0.0.0&lt;br&gt;&lt;br&gt;&lt;br&gt;&lt;br&gt;&lt;br&gt;&lt;br&gt;&lt;br&gt;&lt;br&gt;&lt;br&gt;&lt;div&gt;&lt;br&gt;&lt;/div&gt;" style="rounded=0;whiteSpace=wrap;html=1;fontFamily=Helvetica;fontSize=11;fontColor=default;labelBackgroundColor=default;" parent="1" vertex="1">
          <mxGeometry y="235" width="290" height="425" as="geometry" />
        </mxCell>
        <mxCell id="2OuwanNECZ1vhIvvn0kM-1" value="&lt;h1&gt;Routing fÃ¼r Spine North&lt;br&gt;&lt;/h1&gt;" style="text;html=1;whiteSpace=wrap;overflow=hidden;rounded=0;align=center;" parent="1" vertex="1">
          <mxGeometry x="423" width="366" height="70" as="geometry" />
        </mxCell>
        <mxCell id="2OuwanNECZ1vhIvvn0kM-2" value="Spine North" style="image;html=1;image=img/lib/clip_art/networking/Router_Icon_128x128.png;rounded=0;" parent="1" vertex="1">
          <mxGeometry x="566" y="80" width="80" height="80" as="geometry" />
        </mxCell>
        <mxCell id="2OuwanNECZ1vhIvvn0kM-3" value="LN1R1" style="image;html=1;image=img/lib/clip_art/networking/Router_Icon_128x128.png;rounded=0;" parent="1" vertex="1">
          <mxGeometry y="285" width="80" height="70" as="geometry" />
        </mxCell>
        <mxCell id="2OuwanNECZ1vhIvvn0kM-4" value="LN1R2" style="image;html=1;image=img/lib/clip_art/networking/Router_Icon_128x128.png;rounded=0;" parent="1" vertex="1">
          <mxGeometry x="200" y="280" width="80" height="80" as="geometry" />
        </mxCell>
        <mxCell id="2OuwanNECZ1vhIvvn0kM-14" style="edgeStyle=orthogonalEdgeStyle;shape=connector;curved=1;rounded=1;orthogonalLoop=1;jettySize=auto;html=1;exitX=0.5;exitY=0;exitDx=0;exitDy=0;entryX=0;entryY=0.5;entryDx=0;entryDy=0;strokeColor=default;align=center;verticalAlign=middle;fontFamily=Helvetica;fontSize=11;fontColor=default;labelBackgroundColor=default;endArrow=none;endFill=0;" parent="1" source="2OuwanNECZ1vhIvvn0kM-10" target="2OuwanNECZ1vhIvvn0kM-12" edge="1">
          <mxGeometry relative="1" as="geometry" />
        </mxCell>
        <mxCell id="2OuwanNECZ1vhIvvn0kM-10" value="&lt;font style=&quot;font-size: 8px;&quot;&gt;eth3&lt;br&gt;10.0.201.1&lt;/font&gt;" style="rounded=0;whiteSpace=wrap;html=1;fontFamily=Helvetica;fontSize=11;fontColor=default;labelBackgroundColor=default;" parent="1" vertex="1">
          <mxGeometry x="20" y="260" width="40" height="30" as="geometry" />
        </mxCell>
        <mxCell id="2OuwanNECZ1vhIvvn0kM-12" value="&lt;font style=&quot;font-size: 8px;&quot;&gt;10.0.201.254&lt;/font&gt;" style="rounded=0;whiteSpace=wrap;html=1;fontFamily=Helvetica;fontSize=11;fontColor=default;labelBackgroundColor=default;" parent="1" vertex="1">
          <mxGeometry x="522" y="80" width="44" height="20" as="geometry" />
        </mxCell>
        <mxCell id="2OuwanNECZ1vhIvvn0kM-15" value="&lt;font style=&quot;font-size: 8px;&quot;&gt;10.0.202.254&lt;/font&gt;" style="rounded=0;whiteSpace=wrap;html=1;fontFamily=Helvetica;fontSize=11;fontColor=default;labelBackgroundColor=default;" parent="1" vertex="1">
          <mxGeometry x="522" y="100" width="44" height="20" as="geometry" />
        </mxCell>
        <mxCell id="2OuwanNECZ1vhIvvn0kM-17" style="edgeStyle=orthogonalEdgeStyle;shape=connector;curved=1;rounded=1;orthogonalLoop=1;jettySize=auto;html=1;exitX=0.5;exitY=0;exitDx=0;exitDy=0;entryX=0;entryY=0.5;entryDx=0;entryDy=0;strokeColor=default;align=center;verticalAlign=middle;fontFamily=Helvetica;fontSize=11;fontColor=default;labelBackgroundColor=default;endArrow=none;endFill=0;" parent="1" source="2OuwanNECZ1vhIvvn0kM-16" target="2OuwanNECZ1vhIvvn0kM-15" edge="1">
          <mxGeometry relative="1" as="geometry" />
        </mxCell>
        <mxCell id="2OuwanNECZ1vhIvvn0kM-16" value="&lt;font style=&quot;font-size: 8px;&quot;&gt;eth3&lt;br&gt;10.0.202.1&lt;/font&gt;" style="rounded=0;whiteSpace=wrap;html=1;fontFamily=Helvetica;fontSize=11;fontColor=default;labelBackgroundColor=default;" parent="1" vertex="1">
          <mxGeometry x="220" y="260" width="40" height="30" as="geometry" />
        </mxCell>
        <mxCell id="2OuwanNECZ1vhIvvn0kM-20" value="" style="edgeStyle=orthogonalEdgeStyle;rounded=0;orthogonalLoop=1;jettySize=auto;html=1;exitX=1;exitY=0.5;exitDx=0;exitDy=0;entryX=0;entryY=0.5;entryDx=0;entryDy=0;endArrow=none;endFill=0;" parent="1" source="2OuwanNECZ1vhIvvn0kM-3" edge="1">
          <mxGeometry relative="1" as="geometry">
            <mxPoint x="80" y="320" as="sourcePoint" />
            <mxPoint x="80" y="320" as="targetPoint" />
          </mxGeometry>
        </mxCell>
        <mxCell id="2OuwanNECZ1vhIvvn0kM-25" style="edgeStyle=orthogonalEdgeStyle;shape=connector;curved=1;rounded=1;orthogonalLoop=1;jettySize=auto;html=1;exitX=1;exitY=0.5;exitDx=0;exitDy=0;entryX=0;entryY=0.5;entryDx=0;entryDy=0;strokeColor=default;align=center;verticalAlign=middle;fontFamily=Helvetica;fontSize=11;fontColor=default;labelBackgroundColor=default;endArrow=none;endFill=0;" parent="1" source="2OuwanNECZ1vhIvvn0kM-22" target="2OuwanNECZ1vhIvvn0kM-23" edge="1">
          <mxGeometry relative="1" as="geometry" />
        </mxCell>
        <mxCell id="2OuwanNECZ1vhIvvn0kM-22" value="&lt;font style=&quot;font-size: 8px;&quot;&gt;eth2&lt;br&gt;10.0.0.1&lt;/font&gt;" style="rounded=0;whiteSpace=wrap;html=1;fontFamily=Helvetica;fontSize=11;fontColor=default;labelBackgroundColor=default;" parent="1" vertex="1">
          <mxGeometry x="80" y="300" width="40" height="30" as="geometry" />
        </mxCell>
        <mxCell id="2OuwanNECZ1vhIvvn0kM-23" value="&lt;font style=&quot;font-size: 8px;&quot;&gt;eth2&lt;br&gt;10.0.0.2&lt;/font&gt;" style="rounded=0;whiteSpace=wrap;html=1;fontFamily=Helvetica;fontSize=11;fontColor=default;labelBackgroundColor=default;" parent="1" vertex="1">
          <mxGeometry x="160" y="300" width="40" height="30" as="geometry" />
        </mxCell>
        <mxCell id="2OuwanNECZ1vhIvvn0kM-26" value="&lt;div&gt;Leaf 2&lt;br&gt;&lt;/div&gt;&lt;div&gt;Subnetz 10.0.1.0&lt;/div&gt;&lt;br&gt;&lt;br&gt;&lt;br&gt;&lt;br&gt;&lt;br&gt;&lt;br&gt;&lt;br&gt;&lt;br&gt;&lt;div&gt;&lt;br&gt;&lt;/div&gt;" style="rounded=0;whiteSpace=wrap;html=1;fontFamily=Helvetica;fontSize=11;fontColor=default;labelBackgroundColor=default;" parent="1" vertex="1">
          <mxGeometry x="307" y="235" width="290" height="425" as="geometry" />
        </mxCell>
        <mxCell id="2OuwanNECZ1vhIvvn0kM-27" value="LN2R1" style="image;html=1;image=img/lib/clip_art/networking/Router_Icon_128x128.png;rounded=0;" parent="1" vertex="1">
          <mxGeometry x="307" y="285" width="80" height="70" as="geometry" />
        </mxCell>
        <mxCell id="2OuwanNECZ1vhIvvn0kM-28" value="LN2R2" style="image;html=1;image=img/lib/clip_art/networking/Router_Icon_128x128.png;rounded=0;" parent="1" vertex="1">
          <mxGeometry x="507" y="280" width="80" height="80" as="geometry" />
        </mxCell>
        <mxCell id="2OuwanNECZ1vhIvvn0kM-37" style="edgeStyle=orthogonalEdgeStyle;shape=connector;curved=1;rounded=1;orthogonalLoop=1;jettySize=auto;html=1;exitX=0.5;exitY=0;exitDx=0;exitDy=0;entryX=0;entryY=0.5;entryDx=0;entryDy=0;strokeColor=default;align=center;verticalAlign=middle;fontFamily=Helvetica;fontSize=11;fontColor=default;labelBackgroundColor=default;endArrow=none;endFill=0;" parent="1" source="2OuwanNECZ1vhIvvn0kM-29" target="2OuwanNECZ1vhIvvn0kM-35" edge="1">
          <mxGeometry relative="1" as="geometry" />
        </mxCell>
        <mxCell id="2OuwanNECZ1vhIvvn0kM-29" value="&lt;font style=&quot;font-size: 8px;&quot;&gt;eth3&lt;br&gt;10.0.203.1&lt;/font&gt;" style="rounded=0;whiteSpace=wrap;html=1;fontFamily=Helvetica;fontSize=11;fontColor=default;labelBackgroundColor=default;" parent="1" vertex="1">
          <mxGeometry x="327" y="260" width="40" height="30" as="geometry" />
        </mxCell>
        <mxCell id="2OuwanNECZ1vhIvvn0kM-38" style="edgeStyle=orthogonalEdgeStyle;shape=connector;curved=1;rounded=1;orthogonalLoop=1;jettySize=auto;html=1;exitX=0.5;exitY=0;exitDx=0;exitDy=0;entryX=0.5;entryY=1;entryDx=0;entryDy=0;strokeColor=default;align=center;verticalAlign=middle;fontFamily=Helvetica;fontSize=11;fontColor=default;labelBackgroundColor=default;endArrow=none;endFill=0;" parent="1" source="2OuwanNECZ1vhIvvn0kM-30" target="2OuwanNECZ1vhIvvn0kM-36" edge="1">
          <mxGeometry relative="1" as="geometry" />
        </mxCell>
        <mxCell id="2OuwanNECZ1vhIvvn0kM-30" value="&lt;font style=&quot;font-size: 8px;&quot;&gt;eth3&lt;br&gt;10.0.204.1&lt;/font&gt;" style="rounded=0;whiteSpace=wrap;html=1;fontFamily=Helvetica;fontSize=11;fontColor=default;labelBackgroundColor=default;" parent="1" vertex="1">
          <mxGeometry x="527" y="260" width="40" height="30" as="geometry" />
        </mxCell>
        <mxCell id="2OuwanNECZ1vhIvvn0kM-31" value="" style="edgeStyle=orthogonalEdgeStyle;rounded=0;orthogonalLoop=1;jettySize=auto;html=1;exitX=1;exitY=0.5;exitDx=0;exitDy=0;entryX=0;entryY=0.5;entryDx=0;entryDy=0;endArrow=none;endFill=0;" parent="1" source="2OuwanNECZ1vhIvvn0kM-27" edge="1">
          <mxGeometry relative="1" as="geometry">
            <mxPoint x="387" y="320" as="sourcePoint" />
            <mxPoint x="387" y="320" as="targetPoint" />
          </mxGeometry>
        </mxCell>
        <mxCell id="2OuwanNECZ1vhIvvn0kM-32" style="edgeStyle=orthogonalEdgeStyle;shape=connector;curved=1;rounded=1;orthogonalLoop=1;jettySize=auto;html=1;exitX=1;exitY=0.5;exitDx=0;exitDy=0;entryX=0;entryY=0.5;entryDx=0;entryDy=0;strokeColor=default;align=center;verticalAlign=middle;fontFamily=Helvetica;fontSize=11;fontColor=default;labelBackgroundColor=default;endArrow=none;endFill=0;" parent="1" source="2OuwanNECZ1vhIvvn0kM-33" target="2OuwanNECZ1vhIvvn0kM-34" edge="1">
          <mxGeometry relative="1" as="geometry" />
        </mxCell>
        <mxCell id="2OuwanNECZ1vhIvvn0kM-33" value="&lt;font style=&quot;font-size: 8px;&quot;&gt;eth2&lt;br&gt;10.0.1.1&lt;/font&gt;" style="rounded=0;whiteSpace=wrap;html=1;fontFamily=Helvetica;fontSize=11;fontColor=default;labelBackgroundColor=default;" parent="1" vertex="1">
          <mxGeometry x="387" y="300" width="40" height="30" as="geometry" />
        </mxCell>
        <mxCell id="2OuwanNECZ1vhIvvn0kM-34" value="&lt;font style=&quot;font-size: 8px;&quot;&gt;eth2&lt;br&gt;10.0.1.2&lt;/font&gt;" style="rounded=0;whiteSpace=wrap;html=1;fontFamily=Helvetica;fontSize=11;fontColor=default;labelBackgroundColor=default;" parent="1" vertex="1">
          <mxGeometry x="467" y="300" width="40" height="30" as="geometry" />
        </mxCell>
        <mxCell id="2OuwanNECZ1vhIvvn0kM-35" value="&lt;font style=&quot;font-size: 8px;&quot;&gt;10.0.203.254&lt;/font&gt;" style="rounded=0;whiteSpace=wrap;html=1;fontFamily=Helvetica;fontSize=11;fontColor=default;labelBackgroundColor=default;" parent="1" vertex="1">
          <mxGeometry x="522" y="120" width="44" height="20" as="geometry" />
        </mxCell>
        <mxCell id="2OuwanNECZ1vhIvvn0kM-36" value="&lt;font style=&quot;font-size: 8px;&quot;&gt;10.0.204.254&lt;/font&gt;" style="rounded=0;whiteSpace=wrap;html=1;fontFamily=Helvetica;fontSize=11;fontColor=default;labelBackgroundColor=default;" parent="1" vertex="1">
          <mxGeometry x="522" y="140" width="44" height="20" as="geometry" />
        </mxCell>
        <mxCell id="2OuwanNECZ1vhIvvn0kM-39" value="&lt;div&gt;Leaf 3&lt;br&gt;&lt;/div&gt;&lt;div&gt;Subnetz 10.0.2.0&lt;/div&gt;&lt;br&gt;&lt;br&gt;&lt;br&gt;&lt;br&gt;&lt;br&gt;&lt;br&gt;&lt;br&gt;&lt;br&gt;&lt;div&gt;&lt;br&gt;&lt;/div&gt;" style="rounded=0;whiteSpace=wrap;html=1;fontFamily=Helvetica;fontSize=11;fontColor=default;labelBackgroundColor=default;" parent="1" vertex="1">
          <mxGeometry x="610" y="235" width="290" height="425" as="geometry" />
        </mxCell>
        <mxCell id="2OuwanNECZ1vhIvvn0kM-40" value="LN3R1" style="image;html=1;image=img/lib/clip_art/networking/Router_Icon_128x128.png;rounded=0;" parent="1" vertex="1">
          <mxGeometry x="610" y="285" width="80" height="70" as="geometry" />
        </mxCell>
        <mxCell id="2OuwanNECZ1vhIvvn0kM-41" value="LN3R2" style="image;html=1;image=img/lib/clip_art/networking/Router_Icon_128x128.png;rounded=0;" parent="1" vertex="1">
          <mxGeometry x="810" y="280" width="80" height="80" as="geometry" />
        </mxCell>
        <mxCell id="2OuwanNECZ1vhIvvn0kM-51" style="edgeStyle=orthogonalEdgeStyle;shape=connector;curved=1;rounded=1;orthogonalLoop=1;jettySize=auto;html=1;exitX=0.5;exitY=0;exitDx=0;exitDy=0;entryX=1;entryY=0.5;entryDx=0;entryDy=0;strokeColor=default;align=center;verticalAlign=middle;fontFamily=Helvetica;fontSize=11;fontColor=default;labelBackgroundColor=default;endArrow=none;endFill=0;" parent="1" source="2OuwanNECZ1vhIvvn0kM-42" target="2OuwanNECZ1vhIvvn0kM-48" edge="1">
          <mxGeometry relative="1" as="geometry" />
        </mxCell>
        <mxCell id="2OuwanNECZ1vhIvvn0kM-42" value="&lt;font style=&quot;font-size: 8px;&quot;&gt;eth3&lt;br&gt;10.0.205.1&lt;/font&gt;" style="rounded=0;whiteSpace=wrap;html=1;fontFamily=Helvetica;fontSize=11;fontColor=default;labelBackgroundColor=default;" parent="1" vertex="1">
          <mxGeometry x="630" y="260" width="40" height="30" as="geometry" />
        </mxCell>
        <mxCell id="2OuwanNECZ1vhIvvn0kM-52" style="edgeStyle=orthogonalEdgeStyle;shape=connector;curved=1;rounded=1;orthogonalLoop=1;jettySize=auto;html=1;exitX=0.5;exitY=0;exitDx=0;exitDy=0;entryX=1;entryY=0.5;entryDx=0;entryDy=0;strokeColor=default;align=center;verticalAlign=middle;fontFamily=Helvetica;fontSize=11;fontColor=default;labelBackgroundColor=default;endArrow=none;endFill=0;" parent="1" source="2OuwanNECZ1vhIvvn0kM-43" target="2OuwanNECZ1vhIvvn0kM-50" edge="1">
          <mxGeometry relative="1" as="geometry" />
        </mxCell>
        <mxCell id="2OuwanNECZ1vhIvvn0kM-43" value="&lt;font style=&quot;font-size: 8px;&quot;&gt;eth3&lt;br&gt;10.0.206.1&lt;/font&gt;" style="rounded=0;whiteSpace=wrap;html=1;fontFamily=Helvetica;fontSize=11;fontColor=default;labelBackgroundColor=default;" parent="1" vertex="1">
          <mxGeometry x="830" y="260" width="40" height="30" as="geometry" />
        </mxCell>
        <mxCell id="2OuwanNECZ1vhIvvn0kM-44" value="" style="edgeStyle=orthogonalEdgeStyle;rounded=0;orthogonalLoop=1;jettySize=auto;html=1;exitX=1;exitY=0.5;exitDx=0;exitDy=0;entryX=0;entryY=0.5;entryDx=0;entryDy=0;endArrow=none;endFill=0;" parent="1" source="2OuwanNECZ1vhIvvn0kM-40" edge="1">
          <mxGeometry relative="1" as="geometry">
            <mxPoint x="690" y="320" as="sourcePoint" />
            <mxPoint x="690" y="320" as="targetPoint" />
          </mxGeometry>
        </mxCell>
        <mxCell id="2OuwanNECZ1vhIvvn0kM-45" style="edgeStyle=orthogonalEdgeStyle;shape=connector;curved=1;rounded=1;orthogonalLoop=1;jettySize=auto;html=1;exitX=1;exitY=0.5;exitDx=0;exitDy=0;entryX=0;entryY=0.5;entryDx=0;entryDy=0;strokeColor=default;align=center;verticalAlign=middle;fontFamily=Helvetica;fontSize=11;fontColor=default;labelBackgroundColor=default;endArrow=none;endFill=0;" parent="1" source="2OuwanNECZ1vhIvvn0kM-46" target="2OuwanNECZ1vhIvvn0kM-47" edge="1">
          <mxGeometry relative="1" as="geometry" />
        </mxCell>
        <mxCell id="2OuwanNECZ1vhIvvn0kM-46" value="&lt;font style=&quot;font-size: 8px;&quot;&gt;eth2&lt;br&gt;10.0.2.1&lt;/font&gt;" style="rounded=0;whiteSpace=wrap;html=1;fontFamily=Helvetica;fontSize=11;fontColor=default;labelBackgroundColor=default;" parent="1" vertex="1">
          <mxGeometry x="690" y="300" width="40" height="30" as="geometry" />
        </mxCell>
        <mxCell id="2OuwanNECZ1vhIvvn0kM-47" value="&lt;font style=&quot;font-size: 8px;&quot;&gt;eth2&lt;br&gt;10.0.2.2&lt;/font&gt;" style="rounded=0;whiteSpace=wrap;html=1;fontFamily=Helvetica;fontSize=11;fontColor=default;labelBackgroundColor=default;" parent="1" vertex="1">
          <mxGeometry x="770" y="300" width="40" height="30" as="geometry" />
        </mxCell>
        <mxCell id="2OuwanNECZ1vhIvvn0kM-48" value="&lt;font style=&quot;font-size: 8px;&quot;&gt;10.0.205.254&lt;/font&gt;" style="rounded=0;whiteSpace=wrap;html=1;fontFamily=Helvetica;fontSize=11;fontColor=default;labelBackgroundColor=default;" parent="1" vertex="1">
          <mxGeometry x="646" y="80" width="44" height="20" as="geometry" />
        </mxCell>
        <mxCell id="2OuwanNECZ1vhIvvn0kM-50" value="&lt;font style=&quot;font-size: 8px;&quot;&gt;10.0.206.254&lt;/font&gt;" style="rounded=0;whiteSpace=wrap;html=1;fontFamily=Helvetica;fontSize=11;fontColor=default;labelBackgroundColor=default;" parent="1" vertex="1">
          <mxGeometry x="646" y="100" width="44" height="20" as="geometry" />
        </mxCell>
        <mxCell id="2OuwanNECZ1vhIvvn0kM-53" value="&lt;font style=&quot;font-size: 8px;&quot;&gt;10.0.207.254&lt;/font&gt;" style="rounded=0;whiteSpace=wrap;html=1;fontFamily=Helvetica;fontSize=11;fontColor=default;labelBackgroundColor=default;" parent="1" vertex="1">
          <mxGeometry x="646" y="120" width="44" height="20" as="geometry" />
        </mxCell>
        <mxCell id="2OuwanNECZ1vhIvvn0kM-55" value="&lt;font style=&quot;font-size: 8px;&quot;&gt;10.0.208.254&lt;/font&gt;" style="rounded=0;whiteSpace=wrap;html=1;fontFamily=Helvetica;fontSize=11;fontColor=default;labelBackgroundColor=default;" parent="1" vertex="1">
          <mxGeometry x="646" y="140" width="44" height="20" as="geometry" />
        </mxCell>
        <mxCell id="2OuwanNECZ1vhIvvn0kM-56" value="&lt;div&gt;Leaf 4&lt;br&gt;&lt;/div&gt;&lt;div&gt;Subnetz 10.0.3.0&lt;/div&gt;&lt;br&gt;&lt;br&gt;&lt;br&gt;&lt;br&gt;&lt;br&gt;&lt;br&gt;&lt;br&gt;&lt;br&gt;&lt;div&gt;&lt;br&gt;&lt;/div&gt;" style="rounded=0;whiteSpace=wrap;html=1;fontFamily=Helvetica;fontSize=11;fontColor=default;labelBackgroundColor=default;" parent="1" vertex="1">
          <mxGeometry x="910" y="235" width="290" height="425" as="geometry" />
        </mxCell>
        <mxCell id="2OuwanNECZ1vhIvvn0kM-57" value="LN4R1" style="image;html=1;image=img/lib/clip_art/networking/Router_Icon_128x128.png;rounded=0;" parent="1" vertex="1">
          <mxGeometry x="910" y="285" width="80" height="70" as="geometry" />
        </mxCell>
        <mxCell id="2OuwanNECZ1vhIvvn0kM-58" value="LN4R2" style="image;html=1;image=img/lib/clip_art/networking/Router_Icon_128x128.png;rounded=0;" parent="1" vertex="1">
          <mxGeometry x="1110" y="280" width="80" height="80" as="geometry" />
        </mxCell>
        <mxCell id="2OuwanNECZ1vhIvvn0kM-65" style="edgeStyle=orthogonalEdgeStyle;shape=connector;curved=1;rounded=1;orthogonalLoop=1;jettySize=auto;html=1;exitX=0.5;exitY=0;exitDx=0;exitDy=0;entryX=1;entryY=0.5;entryDx=0;entryDy=0;strokeColor=default;align=center;verticalAlign=middle;fontFamily=Helvetica;fontSize=11;fontColor=default;labelBackgroundColor=default;endArrow=none;endFill=0;" parent="1" source="2OuwanNECZ1vhIvvn0kM-59" target="2OuwanNECZ1vhIvvn0kM-53" edge="1">
          <mxGeometry relative="1" as="geometry" />
        </mxCell>
        <mxCell id="2OuwanNECZ1vhIvvn0kM-59" value="&lt;font style=&quot;font-size: 8px;&quot;&gt;eth3&lt;br&gt;10.0.207.1&lt;/font&gt;" style="rounded=0;whiteSpace=wrap;html=1;fontFamily=Helvetica;fontSize=11;fontColor=default;labelBackgroundColor=default;" parent="1" vertex="1">
          <mxGeometry x="930" y="260" width="40" height="30" as="geometry" />
        </mxCell>
        <mxCell id="2OuwanNECZ1vhIvvn0kM-66" style="edgeStyle=orthogonalEdgeStyle;shape=connector;curved=1;rounded=1;orthogonalLoop=1;jettySize=auto;html=1;exitX=0.5;exitY=0;exitDx=0;exitDy=0;entryX=1;entryY=0.5;entryDx=0;entryDy=0;strokeColor=default;align=center;verticalAlign=middle;fontFamily=Helvetica;fontSize=11;fontColor=default;labelBackgroundColor=default;endArrow=none;endFill=0;" parent="1" source="2OuwanNECZ1vhIvvn0kM-60" target="2OuwanNECZ1vhIvvn0kM-55" edge="1">
          <mxGeometry relative="1" as="geometry" />
        </mxCell>
        <mxCell id="2OuwanNECZ1vhIvvn0kM-60" value="&lt;font style=&quot;font-size: 8px;&quot;&gt;eth3&lt;br&gt;10.0.208.1&lt;/font&gt;" style="rounded=0;whiteSpace=wrap;html=1;fontFamily=Helvetica;fontSize=11;fontColor=default;labelBackgroundColor=default;" parent="1" vertex="1">
          <mxGeometry x="1130" y="260" width="40" height="30" as="geometry" />
        </mxCell>
        <mxCell id="2OuwanNECZ1vhIvvn0kM-61" value="" style="edgeStyle=orthogonalEdgeStyle;rounded=0;orthogonalLoop=1;jettySize=auto;html=1;exitX=1;exitY=0.5;exitDx=0;exitDy=0;entryX=0;entryY=0.5;entryDx=0;entryDy=0;endArrow=none;endFill=0;" parent="1" source="2OuwanNECZ1vhIvvn0kM-57" edge="1">
          <mxGeometry relative="1" as="geometry">
            <mxPoint x="990" y="320" as="sourcePoint" />
            <mxPoint x="990" y="320" as="targetPoint" />
          </mxGeometry>
        </mxCell>
        <mxCell id="2OuwanNECZ1vhIvvn0kM-62" style="edgeStyle=orthogonalEdgeStyle;shape=connector;curved=1;rounded=1;orthogonalLoop=1;jettySize=auto;html=1;exitX=1;exitY=0.5;exitDx=0;exitDy=0;entryX=0;entryY=0.5;entryDx=0;entryDy=0;strokeColor=default;align=center;verticalAlign=middle;fontFamily=Helvetica;fontSize=11;fontColor=default;labelBackgroundColor=default;endArrow=none;endFill=0;" parent="1" source="2OuwanNECZ1vhIvvn0kM-63" target="2OuwanNECZ1vhIvvn0kM-64" edge="1">
          <mxGeometry relative="1" as="geometry" />
        </mxCell>
        <mxCell id="2OuwanNECZ1vhIvvn0kM-63" value="&lt;font style=&quot;font-size: 8px;&quot;&gt;eth2&lt;br&gt;10.0.3.1&lt;/font&gt;" style="rounded=0;whiteSpace=wrap;html=1;fontFamily=Helvetica;fontSize=11;fontColor=default;labelBackgroundColor=default;" parent="1" vertex="1">
          <mxGeometry x="990" y="300" width="40" height="30" as="geometry" />
        </mxCell>
        <mxCell id="2OuwanNECZ1vhIvvn0kM-64" value="&lt;font style=&quot;font-size: 8px;&quot;&gt;eth2&lt;br&gt;10.0.3.2&lt;/font&gt;" style="rounded=0;whiteSpace=wrap;html=1;fontFamily=Helvetica;fontSize=11;fontColor=default;labelBackgroundColor=default;" parent="1" vertex="1">
          <mxGeometry x="1070" y="300" width="40" height="30" as="geometry" />
        </mxCell>
        <mxCell id="Wx6t7SQaT8yqN63WSH3N-1" value="&lt;font style=&quot;font-size: 8px;&quot;&gt;eth1&lt;br&gt;10.0.103.1&lt;/font&gt;" style="rounded=0;whiteSpace=wrap;html=1;fontFamily=Helvetica;fontSize=11;fontColor=default;labelBackgroundColor=default;" parent="1" vertex="1">
          <mxGeometry x="930" y="325" width="40" height="30" as="geometry" />
        </mxCell>
        <mxCell id="Wx6t7SQaT8yqN63WSH3N-2" value="&lt;font style=&quot;font-size: 8px;&quot;&gt;eth1&lt;br&gt;10.0.102.1&lt;/font&gt;" style="rounded=0;whiteSpace=wrap;html=1;fontFamily=Helvetica;fontSize=11;fontColor=default;labelBackgroundColor=default;" parent="1" vertex="1">
          <mxGeometry x="630" y="325" width="40" height="30" as="geometry" />
        </mxCell>
        <mxCell id="Wx6t7SQaT8yqN63WSH3N-3" value="&lt;font style=&quot;font-size: 8px;&quot;&gt;eth1&lt;br&gt;10.0.101.1&lt;/font&gt;" style="rounded=0;whiteSpace=wrap;html=1;fontFamily=Helvetica;fontSize=11;fontColor=default;labelBackgroundColor=default;" parent="1" vertex="1">
          <mxGeometry x="327" y="325" width="40" height="30" as="geometry" />
        </mxCell>
        <mxCell id="Wx6t7SQaT8yqN63WSH3N-4" value="&lt;font style=&quot;font-size: 8px;&quot;&gt;eth1&lt;br&gt;10.0.100.1&lt;/font&gt;" style="rounded=0;whiteSpace=wrap;html=1;fontFamily=Helvetica;fontSize=11;fontColor=default;labelBackgroundColor=default;" parent="1" vertex="1">
          <mxGeometry x="20" y="325" width="40" height="30" as="geometry" />
        </mxCell>
        <mxCell id="Wx6t7SQaT8yqN63WSH3N-12" style="edgeStyle=orthogonalEdgeStyle;shape=connector;rounded=0;orthogonalLoop=1;jettySize=auto;html=1;exitX=0.5;exitY=0;exitDx=0;exitDy=0;entryX=0.5;entryY=1;entryDx=0;entryDy=0;strokeColor=default;align=center;verticalAlign=middle;fontFamily=Helvetica;fontSize=11;fontColor=default;labelBackgroundColor=default;endArrow=none;endFill=0;" parent="1" source="Wx6t7SQaT8yqN63WSH3N-6" target="2OuwanNECZ1vhIvvn0kM-27" edge="1">
          <mxGeometry relative="1" as="geometry" />
        </mxCell>
        <mxCell id="Wx6t7SQaT8yqN63WSH3N-6" value="LN2SW" style="image;html=1;image=img/lib/clip_art/networking/Switch_128x128.png" parent="1" vertex="1">
          <mxGeometry x="307" y="410" width="80" height="80" as="geometry" />
        </mxCell>
        <mxCell id="Wx6t7SQaT8yqN63WSH3N-11" style="edgeStyle=orthogonalEdgeStyle;shape=connector;rounded=0;orthogonalLoop=1;jettySize=auto;html=1;exitX=0.5;exitY=0;exitDx=0;exitDy=0;entryX=0.5;entryY=1;entryDx=0;entryDy=0;strokeColor=default;align=center;verticalAlign=middle;fontFamily=Helvetica;fontSize=11;fontColor=default;labelBackgroundColor=default;endArrow=none;endFill=0;" parent="1" source="Wx6t7SQaT8yqN63WSH3N-7" target="2OuwanNECZ1vhIvvn0kM-3" edge="1">
          <mxGeometry relative="1" as="geometry" />
        </mxCell>
        <mxCell id="Wx6t7SQaT8yqN63WSH3N-7" value="LN1SW" style="image;html=1;image=img/lib/clip_art/networking/Switch_128x128.png" parent="1" vertex="1">
          <mxGeometry y="410" width="80" height="80" as="geometry" />
        </mxCell>
        <mxCell id="Wx6t7SQaT8yqN63WSH3N-13" style="edgeStyle=orthogonalEdgeStyle;shape=connector;rounded=0;orthogonalLoop=1;jettySize=auto;html=1;exitX=0.5;exitY=0;exitDx=0;exitDy=0;entryX=0.5;entryY=1;entryDx=0;entryDy=0;strokeColor=default;align=center;verticalAlign=middle;fontFamily=Helvetica;fontSize=11;fontColor=default;labelBackgroundColor=default;endArrow=none;endFill=0;" parent="1" source="Wx6t7SQaT8yqN63WSH3N-8" target="2OuwanNECZ1vhIvvn0kM-40" edge="1">
          <mxGeometry relative="1" as="geometry" />
        </mxCell>
        <mxCell id="Wx6t7SQaT8yqN63WSH3N-8" value="LN3SW" style="image;html=1;image=img/lib/clip_art/networking/Switch_128x128.png" parent="1" vertex="1">
          <mxGeometry x="610" y="407.5" width="80" height="80" as="geometry" />
        </mxCell>
        <mxCell id="Wx6t7SQaT8yqN63WSH3N-14" style="edgeStyle=orthogonalEdgeStyle;shape=connector;rounded=0;orthogonalLoop=1;jettySize=auto;html=1;exitX=0.5;exitY=0;exitDx=0;exitDy=0;entryX=0.5;entryY=1;entryDx=0;entryDy=0;strokeColor=default;align=center;verticalAlign=middle;fontFamily=Helvetica;fontSize=11;fontColor=default;labelBackgroundColor=default;endArrow=none;endFill=0;" parent="1" source="Wx6t7SQaT8yqN63WSH3N-9" target="2OuwanNECZ1vhIvvn0kM-57" edge="1">
          <mxGeometry relative="1" as="geometry" />
        </mxCell>
        <mxCell id="Wx6t7SQaT8yqN63WSH3N-9" value="LN4SW" style="image;html=1;image=img/lib/clip_art/networking/Switch_128x128.png" parent="1" vertex="1">
          <mxGeometry x="910" y="407.5" width="80" height="80" as="geometry" />
        </mxCell>
        <mxCell id="Wx6t7SQaT8yqN63WSH3N-18" value="LSDF&lt;br&gt;10.0.102.200" style="image;html=1;image=img/lib/clip_art/computers/Server_128x128.png;fontFamily=Helvetica;fontSize=11;fontColor=default;labelBackgroundColor=default;" parent="1" vertex="1">
          <mxGeometry x="620" y="545" width="80" height="80" as="geometry" />
        </mxCell>
        <mxCell id="iK8dBen6voP-xHgyKP0N-1" value="SCC_N1&lt;br&gt;10.0.100.200" style="image;html=1;image=img/lib/clip_art/computers/Server_128x128.png;fontFamily=Helvetica;fontSize=11;fontColor=default;labelBackgroundColor=default;" vertex="1" parent="1">
          <mxGeometry x="10" y="540" width="80" height="80" as="geometry" />
        </mxCell>
        <mxCell id="iK8dBen6voP-xHgyKP0N-3" style="edgeStyle=orthogonalEdgeStyle;rounded=0;orthogonalLoop=1;jettySize=auto;html=1;exitX=0.75;exitY=0;exitDx=0;exitDy=0;entryX=0.875;entryY=0.625;entryDx=0;entryDy=0;entryPerimeter=0;endArrow=none;endFill=0;" edge="1" parent="1" source="iK8dBen6voP-xHgyKP0N-1" target="Wx6t7SQaT8yqN63WSH3N-7">
          <mxGeometry relative="1" as="geometry" />
        </mxCell>
        <mxCell id="iK8dBen6voP-xHgyKP0N-4" value="CAMPUS_N&lt;br&gt;10.0.101.200" style="image;html=1;image=img/lib/clip_art/computers/Server_128x128.png;fontFamily=Helvetica;fontSize=11;fontColor=default;labelBackgroundColor=default;" vertex="1" parent="1">
          <mxGeometry x="320" y="545" width="80" height="80" as="geometry" />
        </mxCell>
        <mxCell id="iK8dBen6voP-xHgyKP0N-5" style="edgeStyle=orthogonalEdgeStyle;shape=connector;rounded=0;orthogonalLoop=1;jettySize=auto;html=1;exitX=0.75;exitY=0;exitDx=0;exitDy=0;entryX=0.913;entryY=0.5;entryDx=0;entryDy=0;entryPerimeter=0;strokeColor=default;align=center;verticalAlign=middle;fontFamily=Helvetica;fontSize=11;fontColor=default;labelBackgroundColor=default;endArrow=none;endFill=0;" edge="1" parent="1" source="iK8dBen6voP-xHgyKP0N-4" target="Wx6t7SQaT8yqN63WSH3N-6">
          <mxGeometry relative="1" as="geometry" />
        </mxCell>
        <mxCell id="iK8dBen6voP-xHgyKP0N-6" style="edgeStyle=orthogonalEdgeStyle;shape=connector;rounded=0;orthogonalLoop=1;jettySize=auto;html=1;exitX=0.75;exitY=0;exitDx=0;exitDy=0;entryX=0.875;entryY=0.531;entryDx=0;entryDy=0;entryPerimeter=0;strokeColor=default;align=center;verticalAlign=middle;fontFamily=Helvetica;fontSize=11;fontColor=default;labelBackgroundColor=default;endArrow=none;endFill=0;" edge="1" parent="1" source="Wx6t7SQaT8yqN63WSH3N-18" target="Wx6t7SQaT8yqN63WSH3N-8">
          <mxGeometry relative="1" as="geometry" />
        </mxCell>
        <mxCell id="iK8dBen6voP-xHgyKP0N-7" value="&lt;font style=&quot;font-size: 24px;&quot;&gt;... bis Leaf 10&lt;/font&gt;" style="text;html=1;align=center;verticalAlign=middle;whiteSpace=wrap;rounded=0;fontFamily=Helvetica;fontSize=11;fontColor=default;labelBackgroundColor=default;" vertex="1" parent="1">
          <mxGeometry x="1211" y="450" width="159" height="30" as="geometry" />
        </mxCell>
      </root>
    </mxGraphModel>
  </diagram>
</mxfile>
